# xmcd
#
# Track frame offsets:
#	150
#	35805
#	67964
#	89097
#	132697
#	241380
#
# Disc length: 3859 seconds
#
# Revision: 0
# Processed by: cddbd v1.5.2PL0 Copyright (c) Steve Scherf et al.
# Submitted via: audiograbber 1.83.01
#
DISCID=590f1106
DTITLE=Klaus Schulze and Pete Namlook [featuring Bill Laswell] - The Dark Side Of
DTITLE=The Moog [Boxset 2 - Vol. 5-8 2016] [CD 2) - Vol. 6
DYEAR=1997
DGENRE=Electronic
TTITLE0=The Final DAT Part I
TTITLE1=The Final DAT Part II
TTITLE2=The Final DAT Part III
TTITLE3=The Final DAT Part IV
TTITLE4=The Final DAT Part V
TTITLE5=The Final DAT Part VI
EXTD=
EXTT0=
EXTT1=
EXTT2=
EXTT3=
EXTT4=
EXTT5=
PLAYORDER=
